<svg width="59" height="59" viewBox="0 0 59 59" fill="none" xmlns="http://www.w3.org/2000/svg">
<rect opacity="0.1" width="59" height="59" rx="9.07692" fill="#9632FF"/>
<mask id="mask0_1002_6047" style="mask-type:alpha" maskUnits="userSpaceOnUse" x="0" y="0" width="59" height="59">
<path fill-rule="evenodd" clip-rule="evenodd" d="M0 9.07692C0 4.06388 4.06388 0 9.07692 0L49.9231 0C54.9361 0 59 4.06388 59 9.07692V49.9231C59 54.9361 54.9361 59 49.9231 59H9.07692C4.06388 59 0 54.9361 0 49.9231L0 9.07692Z" fill="white"/>
</mask>
<g mask="url(#mask0_1002_6047)">
<g opacity="0.05">
<path d="M-21.5409 82.8257V82.8257C-15.1083 77.686 -12.2184 69.2964 -14.1211 61.2856L-14.9953 57.6046C-17.4318 47.3465 -13.7311 36.6035 -5.49401 30.022L50.721 -14.8936" stroke="#9632FF" stroke-width="1.13462"/>
<path d="M-5.03445 69.6383L-3.27481 68.2324C2.30055 63.7777 5.6719 57.1255 5.96787 49.9952V49.9952C6.26384 42.8649 9.63519 36.2127 15.2106 31.758L65.1376 -8.13351" stroke="#9632FF" stroke-width="1.13462"/>
<path d="M-55.5293 109.986L40.1605 33.5298" stroke="#9632FF" stroke-width="1.13462"/>
<path d="M36.6223 36.3554L40.9047 32.9338C45.0318 29.6362 48.4538 25.5423 50.9671 20.8957V20.8957C53.4804 16.249 56.9024 12.1552 61.0296 8.85756L74.3782 -1.80791" stroke="#9632FF" stroke-width="1.13462"/>
<path d="M-23.5043 84.3955V84.3955C-16.9591 79.1659 -8.16481 77.7174 -0.288137 80.5717L0.311068 80.7888C8.55997 83.7779 17.7698 82.261 24.6244 76.7843L86.441 27.393" stroke="#9632FF" stroke-width="1.13462"/>
<path d="M4.15485 22.3139L4.81961 21.7827C11.0168 16.8312 14.4499 9.19818 14.043 1.27629V1.27629C13.636 -6.64561 17.0692 -14.2787 23.2664 -19.2302L32.9973 -27.0052" stroke="#9632FF" stroke-width="1.13462"/>
<path d="M15.0083 53.6251L18.4087 50.9082C23.0245 47.2201 28.6916 45.092 34.5941 44.8302V44.8302C40.4966 44.5683 46.1637 42.4402 50.7795 38.7521L83.7837 12.3819" stroke="#9632FF" stroke-width="1.13462"/>
</g>
</g>
<path d="M33.6796 15.4043C31.2941 13.0188 27.4247 13.0188 25.0393 15.4054L16.7857 23.6601C14.8613 25.5845 16.2239 28.8739 18.9457 28.8739H27.4614C27.4373 28.708 27.4236 28.5363 27.4236 28.3636C27.4236 28.1908 27.4362 28.0215 27.4591 27.8556H21.2271L29.3583 19.7221L33.6784 24.0446C34.8706 25.2367 36.8053 25.2367 37.9975 24.0446L40.1598 21.8845L33.6796 15.4043Z" fill="#FFBC00"/>
<path d="M39.7766 27.8556H31.261C31.285 28.0215 31.2987 28.1931 31.2987 28.3659C31.2987 28.5386 31.2861 28.708 31.2633 28.8738H37.4952L29.364 37.0073L25.0439 32.6849C23.8517 31.4927 21.917 31.4927 20.7249 32.6849L18.5625 34.845L25.045 41.3263C27.4305 43.7118 31.2999 43.7118 33.6853 41.3252L41.9389 33.0704C43.861 31.1449 42.4996 27.8556 39.7766 27.8556Z" fill="#9632FF"/>
<circle cx="29.3608" cy="28.3647" r="3.5639" fill="url(#paint0_linear_1002_6047)"/>
<defs>
<linearGradient id="paint0_linear_1002_6047" x1="25.7966" y1="31.9287" x2="32.9244" y2="31.9287" gradientUnits="userSpaceOnUse">
<stop offset="0.06" stop-color="#FFBC00"/>
<stop offset="0.94" stop-color="#9632FF"/>
</linearGradient>
</defs>
</svg>
