<svg width="28" height="32" viewBox="0 0 28 32" fill="none" xmlns="http://www.w3.org/2000/svg">
<path fill-rule="evenodd" clip-rule="evenodd" d="M10.2074 7.04437C10.2074 6.51417 10.2088 6.08276 10.2583 5.70314C10.3069 5.3314 10.3942 5.08115 10.5188 4.90082C10.7326 4.59146 11.2813 4.18604 13.0657 4.18604H14.9324C16.7168 4.18604 17.2654 4.59146 17.4792 4.90082C17.6039 5.08115 17.6912 5.3314 17.7397 5.70314C17.7893 6.08276 17.7907 6.51417 17.7907 7.04437V7.1027H10.2074V7.04437ZM8.45736 7.1027V7.01405C8.45733 6.51993 8.4573 5.98023 8.52306 5.47659C8.59119 4.95473 8.73719 4.40071 9.07922 3.90583C9.79874 2.86477 11.1168 2.43604 13.0657 2.43604H14.9324C16.8813 2.43604 18.1993 2.86477 18.9188 3.90583C19.2609 4.40071 19.4069 4.95473 19.475 5.47659C19.5408 5.98023 19.5407 6.51991 19.5407 7.01403V7.01406V7.1027H19.8332C22.4268 7.1027 24.1978 7.70304 25.2308 8.93114C26.2537 10.1473 26.351 11.7451 26.1871 13.2348L26.1323 13.8192C26.1318 13.8682 26.1272 13.917 26.1186 13.9652L25.3117 22.5726C25.1832 23.772 24.8821 25.087 23.8111 26.0654C22.7481 27.0365 21.1012 27.5194 18.6666 27.5194H9.33325C6.89859 27.5194 5.2517 27.0365 4.1887 26.0654C3.11778 25.087 2.81674 23.772 2.68823 22.5726L2.68699 22.561L1.81274 13.2349C1.64879 11.7451 1.74609 10.1473 2.76904 8.93114C3.80202 7.70304 5.57304 7.1027 8.16658 7.1027H8.45736ZM24.4468 13.0498L24.4202 13.333C22.5794 14.6136 20.5567 15.5167 18.4641 16.0425C17.9954 16.1602 17.7109 16.6356 17.8287 17.1043C17.9464 17.573 18.4218 17.8575 18.8905 17.7397C20.7352 17.2762 22.5307 16.5451 24.2127 15.5463L23.571 22.3918C23.4542 23.4761 23.2126 24.2418 22.6308 24.7734C22.04 25.3131 20.9219 25.7694 18.6666 25.7694H9.33325C7.07791 25.7694 5.9598 25.3131 5.36905 24.7734C4.78723 24.2418 4.5456 23.4761 4.42888 22.3918L3.79478 15.6272C5.4814 16.6123 7.27543 17.3373 9.12679 17.7878C9.59634 17.9021 10.0696 17.6141 10.1839 17.1446C10.2982 16.675 10.0102 16.2018 9.54064 16.0875C7.45436 15.5797 5.44119 14.6874 3.58878 13.4295L3.55455 13.0644L3.55294 13.0498C3.40303 11.695 3.55794 10.7119 4.10829 10.0576C4.65031 9.4132 5.77846 8.8527 8.16658 8.8527H9.33236H18.6657H19.8332C22.2214 8.8527 23.3495 9.4132 23.8915 10.0576C24.4419 10.7119 24.5967 11.695 24.4468 13.0498ZM16.4619 15.9247C16.7893 16.2801 16.7667 16.8337 16.4113 17.1612L14.3381 19.0713C13.776 19.5983 12.8771 19.5971 12.318 19.038L11.5597 18.2797C11.218 17.938 11.218 17.384 11.5597 17.0423C11.9014 16.7006 12.4554 16.7006 12.7971 17.0423L13.3536 17.5988L15.2255 15.8741C15.5809 15.5467 16.1344 15.5694 16.4619 15.9247Z" fill="url(#paint0_linear_401_4194)"/>
<g filter="url(#filter0_d_401_4194)">
<path fill-rule="evenodd" clip-rule="evenodd" d="M8.45703 17.6032C8.45703 14.5426 10.9381 12.0615 13.9987 12.0615C17.0593 12.0615 19.5404 14.5426 19.5404 17.6032C19.5404 20.6638 17.0593 23.1449 13.9987 23.1449C10.9381 23.1449 8.45703 20.6638 8.45703 17.6032Z" fill="url(#paint1_linear_401_4194)"/>
</g>
<path fill-rule="evenodd" clip-rule="evenodd" d="M16.4573 15.9262C16.7848 16.2816 16.7621 16.8351 16.4067 17.1626L14.3335 19.0727C13.7715 19.5997 12.8725 19.5985 12.3134 19.0394L11.5551 18.2811C11.2134 17.9394 11.2134 17.3854 11.5551 17.0437C11.8968 16.702 12.4508 16.702 12.7925 17.0437L13.3491 17.6002L15.2209 15.8755C15.5763 15.5481 16.1299 15.5708 16.4573 15.9262Z" fill="white"/>
<defs>
<filter id="filter0_d_401_4194" x="4.45703" y="12.0615" width="19.083" height="19.0835" filterUnits="userSpaceOnUse" color-interpolation-filters="sRGB">
<feFlood flood-opacity="0" result="BackgroundImageFix"/>
<feColorMatrix in="SourceAlpha" type="matrix" values="0 0 0 0 0 0 0 0 0 0 0 0 0 0 0 0 0 0 127 0" result="hardAlpha"/>
<feOffset dy="4"/>
<feGaussianBlur stdDeviation="2"/>
<feComposite in2="hardAlpha" operator="out"/>
<feColorMatrix type="matrix" values="0 0 0 0 0.407843 0 0 0 0 0.196078 0 0 0 0 1 0 0 0 0.44 0"/>
<feBlend mode="normal" in2="BackgroundImageFix" result="effect1_dropShadow_401_4194"/>
<feBlend mode="normal" in="SourceGraphic" in2="effect1_dropShadow_401_4194" result="shape"/>
</filter>
<linearGradient id="paint0_linear_401_4194" x1="13.9999" y1="2.43604" x2="13.9999" y2="27.5194" gradientUnits="userSpaceOnUse">
<stop stop-color="#8032FF"/>
<stop offset="1" stop-color="#4F32FF"/>
</linearGradient>
<linearGradient id="paint1_linear_401_4194" x1="13.9987" y1="12.0615" x2="13.9987" y2="23.1449" gradientUnits="userSpaceOnUse">
<stop stop-color="#7A32FF"/>
<stop offset="1" stop-color="#5332FF"/>
</linearGradient>
</defs>
</svg>
