<svg width="32" height="32" viewBox="0 0 32 32" fill="none" xmlns="http://www.w3.org/2000/svg">
<rect opacity="0.1" width="32" height="32" rx="8" fill="#329DFF"/>
<mask id="mask0_401_3917" style="mask-type:alpha" maskUnits="userSpaceOnUse" x="0" y="0" width="32" height="32">
<path fill-rule="evenodd" clip-rule="evenodd" d="M0 8C0 3.58172 3.58172 0 8 0L24 0C28.4183 0 32 3.58172 32 8V24C32 28.4183 28.4183 32 24 32H8C3.58172 32 0 28.4183 0 24L0 8Z" fill="white"/>
</mask>
<g mask="url(#mask0_401_3917)">
<g opacity="0.05">
<path d="M-11.6826 44.9222V44.9222C-8.19369 42.1346 -6.62626 37.5843 -7.65822 33.2394L-8.1324 31.243C-9.45385 25.6793 -7.44672 19.8525 -2.97914 16.2829L27.5104 -8.07811" stroke="#2F5574"/>
<path d="M-2.73083 37.7698L-1.77645 37.0072C1.24748 34.5911 3.07601 30.9832 3.23653 27.1159V27.1159C3.39706 23.2486 5.22559 19.6406 8.24951 17.2245L35.3286 -4.41156" stroke="#2F5574"/>
<path d="M-30.1182 59.6528L21.7814 18.1852" stroke="#2F5574"/>
<path d="M19.8621 19.7179L22.1848 17.8621C24.4232 16.0736 26.2792 13.8532 27.6424 11.333V11.333C29.0055 8.81279 30.8615 6.5924 33.1 4.80386L40.3399 -0.980803" stroke="#2F5574"/>
<path d="M-12.7479 45.7733V45.7733C-9.19794 42.9369 -4.42817 42.1513 -0.156075 43.6993L0.168918 43.8171C4.6429 45.4383 9.63807 44.6156 13.3558 41.6451L46.8835 14.8566" stroke="#2F5574"/>
<path d="M2.25414 12.1023L2.61469 11.8142C5.97585 9.12862 7.83792 4.98866 7.6172 0.692038V0.692038C7.39647 -3.60458 9.25854 -7.74455 12.6197 -10.4301L17.8975 -14.6471" stroke="#2F5574"/>
<path d="M8.13982 29.0844L9.98409 27.6108C12.4876 25.6105 15.5613 24.4563 18.7626 24.3143V24.3143C21.964 24.1722 25.0377 23.018 27.5412 21.0177L45.4417 6.7152" stroke="#2F5574"/>
</g>
</g>
<rect x="9.84668" y="11.6914" width="12.3077" height="10.4615" rx="5" fill="url(#paint0_linear_401_3917)"/>
<path fill-rule="evenodd" clip-rule="evenodd" d="M12.4697 12.6159C11.4508 12.6159 10.6174 13.4493 10.6174 14.4683V18.6098C10.6174 19.6287 11.4508 20.4621 12.4697 20.4621H19.5343C20.5533 20.4621 21.3866 19.6287 21.3866 18.6098V18.339H20.679C19.8115 18.339 18.9696 17.7047 18.89 16.7678C18.8403 16.2372 19.0423 15.7415 19.3924 15.3975C19.7072 15.0763 20.1389 14.8929 20.6051 14.8929H21.3866V14.4683C21.3866 13.4493 20.5533 12.6159 19.5343 12.6159H12.4697ZM9.69434 14.4683C9.69434 12.9395 10.941 11.6929 12.4697 11.6929H19.5343C21.0631 11.6929 22.3097 12.9395 22.3097 14.4683V15.3544C22.3097 15.6093 22.1031 15.816 21.8482 15.816H20.6051C20.3841 15.816 20.1898 15.9016 20.0496 16.0456L20.0414 16.0539C19.8776 16.2137 19.7862 16.4413 19.8092 16.683L19.8097 16.6884L19.8097 16.6884C19.8422 17.0791 20.218 17.4159 20.679 17.4159H21.8482C22.1031 17.4159 22.3097 17.6226 22.3097 17.8775V18.6098C22.3097 20.1385 21.0631 21.3852 19.5343 21.3852H12.4697C10.941 21.3852 9.69434 20.1385 9.69434 18.6098V14.4683Z" fill="#002E53"/>
<path fill-rule="evenodd" clip-rule="evenodd" d="M17.2943 9.81603C17.2943 9.31909 16.7977 8.97793 16.3379 9.1522L11.4515 10.9984C10.9489 11.1887 10.6174 11.6686 10.6174 12.2099V15.0222C10.6174 15.2771 10.4108 15.4837 10.1559 15.4837C9.90097 15.4837 9.69434 15.2771 9.69434 15.0222V12.2099C9.69434 11.2866 10.2614 10.4618 11.1248 10.1351L16.0108 8.28905C16.0108 8.28901 16.0107 8.28908 16.0108 8.28905C17.0771 7.88509 18.2174 8.67614 18.2174 9.81603V12.1545C18.2174 12.4094 18.0108 12.616 17.7559 12.616C17.501 12.616 17.2943 12.4094 17.2943 12.1545V9.81603Z" fill="#002E53"/>
<path fill-rule="evenodd" clip-rule="evenodd" d="M20.6044 15.8161C20.3834 15.8161 20.1891 15.9018 20.0489 16.0458L20.0406 16.0541C19.8769 16.2139 19.7855 16.4415 19.8085 16.6831L19.809 16.6886L19.809 16.6886C19.8415 17.0793 20.2173 17.4161 20.6782 17.4161H21.8738C21.9733 17.4097 22.0382 17.3319 22.0382 17.25V15.9823C22.0382 15.9003 21.9733 15.8226 21.8738 15.8161H20.6044ZM19.3917 15.3977C19.7065 15.0765 20.1381 14.8931 20.6044 14.8931H21.8844C21.8899 14.8931 21.8954 14.8932 21.9009 14.8934C22.4873 14.9143 22.9613 15.3889 22.9613 15.9823V17.25C22.9613 17.8434 22.4873 18.318 21.9009 18.3389C21.8954 18.3391 21.8899 18.3392 21.8844 18.3392H20.6782C19.8108 18.3392 18.9689 17.7049 18.8893 16.7679C18.8396 16.2374 19.0416 15.7417 19.3917 15.3977Z" fill="#002E53"/>
<path fill-rule="evenodd" clip-rule="evenodd" d="M12.4639 14.7699C12.4639 14.515 12.6705 14.3083 12.9254 14.3083H17.2331C17.488 14.3083 17.6946 14.515 17.6946 14.7699C17.6946 15.0248 17.488 15.2314 17.2331 15.2314H12.9254C12.6705 15.2314 12.4639 15.0248 12.4639 14.7699Z" fill="#002E53"/>
<defs>
<linearGradient id="paint0_linear_401_3917" x1="16.0005" y1="11.6914" x2="16.0005" y2="22.1529" gradientUnits="userSpaceOnUse">
<stop stop-color="#002E53" stop-opacity="0.34"/>
<stop offset="1" stop-color="#001253" stop-opacity="0"/>
</linearGradient>
</defs>
</svg>
