<svg width="42" height="43" viewBox="0 0 42 43" fill="none" xmlns="http://www.w3.org/2000/svg">
<rect opacity="0.1" y="0.977539" width="42" height="42" rx="8" fill="#000AFF"/>
<mask id="mask0_401_3512" style="mask-type:alpha" maskUnits="userSpaceOnUse" x="0" y="0" width="42" height="43">
<path fill-rule="evenodd" clip-rule="evenodd" d="M0 8.97754C0 4.55926 3.58172 0.977539 8 0.977539L34 0.977539C38.4183 0.977539 42 4.55926 42 8.97754V34.9775C42 39.3958 38.4183 42.9775 34 42.9775H8C3.58172 42.9775 0 39.3958 0 34.9775L0 8.97754Z" fill="white"/>
</mask>
<g mask="url(#mask0_401_3512)">
<g opacity="0.05">
<path d="M-15.3329 59.938V59.938C-10.7537 56.2792 -8.69648 50.307 -10.0509 44.6043L-10.6733 41.984C-12.4077 34.6816 -9.77334 27.034 -3.90963 22.3489L36.1079 -9.62493" stroke="#3439DA"/>
<path d="M-3.58427 50.5503L-2.33165 49.5494C1.63725 46.3783 4.0372 41.6428 4.24789 36.567V36.567C4.45858 31.4912 6.85852 26.7558 10.8274 23.5846L46.3687 -4.81274" stroke="#3439DA"/>
<path d="M-39.5293 79.272L28.5889 24.8457" stroke="#3439DA"/>
<path d="M26.0709 26.8574L29.1194 24.4217C32.0574 22.0742 34.4934 19.16 36.2825 15.8522V15.8522C38.0716 12.5444 40.5076 9.63016 43.4456 7.2827L52.948 -0.309669" stroke="#3439DA"/>
<path d="M-16.7309 61.0554V61.0554C-12.0716 57.3327 -5.81124 56.3016 -0.204112 58.3334L0.222439 58.488C6.09454 60.6158 12.6507 59.536 17.5302 55.6373L61.5353 20.4773" stroke="#3439DA"/>
<path d="M2.95905 16.8616L3.43227 16.4835C7.8438 12.9587 10.2878 7.52496 9.99806 1.88564V1.88564C9.70836 -3.75367 12.1523 -9.18737 16.5638 -12.7122L23.491 -18.2469" stroke="#3439DA"/>
<path d="M10.6825 39.1511L13.1031 37.2171C16.389 34.5917 20.4232 33.0767 24.625 32.8904V32.8904C28.8267 32.704 32.8609 31.189 36.1468 28.5636L59.6413 9.7916" stroke="#3439DA"/>
</g>
</g>
<path fill-rule="evenodd" clip-rule="evenodd" d="M24.4031 11.8919C24.4039 11.8925 24.4047 11.893 24.4056 11.8935L30.3909 15.8205C32.7623 17.3767 32.7624 20.8484 30.391 22.4046L24.4015 26.3343C24.4014 26.3343 24.4016 26.3342 24.4015 26.3343C23.7126 26.7871 22.8453 26.9901 22.0195 26.9901C21.194 26.9901 20.3273 26.7874 19.6385 26.3349C19.6382 26.3347 19.6379 26.3345 19.6375 26.3343L13.6195 22.4056C11.2362 20.8496 11.2362 17.3655 13.6195 15.8096L19.6375 11.8809C19.6379 11.8806 19.6382 11.8804 19.6385 11.8802C20.3274 11.4277 21.1944 11.2249 22.0208 11.2263C22.8468 11.2278 23.714 11.4334 24.4031 11.8919ZM22.0182 12.7263C21.4151 12.7253 20.8525 12.8772 20.4615 13.1343L20.4595 13.1356L14.4395 17.0656C14.4395 17.0656 14.4395 17.0656 14.4395 17.0656C12.9629 18.0296 12.9629 20.1855 14.4395 21.1496C14.4395 21.1496 14.4395 21.1496 14.4395 21.1496L20.4615 25.0809C20.8525 25.3379 21.4155 25.4901 22.0195 25.4901C22.6236 25.4901 23.1865 25.3379 23.5775 25.0809L29.568 21.1505C29.5681 21.1505 29.568 21.1506 29.568 21.1505C31.0366 20.1867 31.0367 18.0385 29.5681 17.0747C29.5681 17.0746 29.5681 17.0747 29.5681 17.0747L23.5735 13.1416C23.183 12.8813 22.6213 12.7274 22.0182 12.7263Z" fill="#0008D1"/>
<path fill-rule="evenodd" clip-rule="evenodd" d="M15.6307 22.3076C16.045 22.3085 16.38 22.645 16.3791 23.0592L16.3691 27.7476C16.3691 27.7479 16.3691 27.7474 16.3691 27.7476C16.3693 28.1966 16.5467 28.7045 16.8678 29.1507C17.1892 29.5972 17.6131 29.9249 18.036 30.066C18.0361 30.066 18.036 30.066 18.036 30.066L21.2224 31.1248C21.2229 31.125 21.2233 31.1251 21.2237 31.1252C21.3992 31.1824 21.6788 31.2226 21.9954 31.2226C22.3104 31.2226 22.5936 31.1828 22.7766 31.1246L25.962 30.0661C25.962 30.0661 25.9619 30.0661 25.962 30.0661C26.385 29.925 26.8091 29.5972 27.1304 29.1507C27.4518 28.7043 27.6291 28.1968 27.6291 27.7476V23.1076C27.6291 22.6934 27.9649 22.3576 28.3791 22.3576C28.7934 22.3576 29.1291 22.6934 29.1291 23.1076V27.7476C29.1291 28.5684 28.8165 29.376 28.3478 30.027C27.8793 30.678 27.2133 31.2301 26.4363 31.4891L23.2387 32.5517C22.8616 32.6729 22.4112 32.7226 21.9954 32.7226C21.5803 32.7226 21.1304 32.673 20.7559 32.5504L20.7526 32.5494L17.5626 31.4894C16.7857 31.2304 16.119 30.678 15.6504 30.027C15.1818 29.376 14.8691 28.5684 14.8691 27.7476L14.8691 27.746L14.8791 23.056C14.88 22.6418 15.2165 22.3067 15.6307 22.3076Z" fill="#0008D1"/>
<path fill-rule="evenodd" clip-rule="evenodd" d="M31.4004 18.2275C31.8146 18.2275 32.1504 18.5633 32.1504 18.9775V24.9775C32.1504 25.3918 31.8146 25.7275 31.4004 25.7275C30.9862 25.7275 30.6504 25.3918 30.6504 24.9775V18.9775C30.6504 18.5633 30.9862 18.2275 31.4004 18.2275Z" fill="#0008D1"/>
<path fill-rule="evenodd" clip-rule="evenodd" d="M24.284 11.8795L24.2864 11.8811L30.2718 15.808C32.6432 17.3642 32.6432 20.836 30.2719 22.3922L24.2824 26.3218C23.5935 26.7746 22.7262 26.9776 21.9004 26.9776C21.0749 26.9776 20.2082 26.775 19.5194 26.3225L19.5184 26.3218L13.5004 22.3931C11.1171 20.8372 11.1171 17.3531 13.5004 15.7971L19.5184 11.8684L19.5194 11.8677C20.2083 11.4153 21.0752 11.2124 21.9017 11.2139C22.7276 11.2153 23.5949 11.4209 24.284 11.8795Z" fill="url(#paint0_linear_401_3512)"/>
<defs>
<linearGradient id="paint0_linear_401_3512" x1="22.1687" y1="10.9775" x2="22.1687" y2="26.7413" gradientUnits="userSpaceOnUse">
<stop stop-color="#0008D1" stop-opacity="0.35"/>
<stop offset="1" stop-color="#0008D1" stop-opacity="0"/>
</linearGradient>
</defs>
</svg>
