<svg width="32" height="32" viewBox="0 0 32 32" fill="none" xmlns="http://www.w3.org/2000/svg">
<rect opacity="0.1" width="32" height="32" rx="8" fill="#FF9900"/>
<mask id="mask0_401_3932" style="mask-type:alpha" maskUnits="userSpaceOnUse" x="0" y="0" width="32" height="32">
<path fill-rule="evenodd" clip-rule="evenodd" d="M0 8C0 3.58172 3.58172 0 8 0L24 0C28.4183 0 32 3.58172 32 8V24C32 28.4183 28.4183 32 24 32H8C3.58172 32 0 28.4183 0 24L0 8Z" fill="white"/>
</mask>
<g mask="url(#mask0_401_3932)">
<g opacity="0.12">
<path d="M-11.6816 44.9224V44.9224C-8.19271 42.1348 -6.62529 37.5845 -7.65725 33.2397L-8.13143 31.2432C-9.45288 25.6795 -7.44575 19.8528 -2.97817 16.2832L27.5113 -8.07786" stroke="#FFAD33"/>
<path d="M-2.72985 37.77L-1.77547 37.0075C1.24845 34.5914 3.07698 30.9834 3.23751 27.1161V27.1161C3.39803 23.2488 5.22656 19.6409 8.25048 17.2248L35.3296 -4.41131" stroke="#FFAD33"/>
<path d="M-30.1182 59.6533L21.7814 18.1857" stroke="#FFAD33"/>
<path d="M19.8631 19.7182L22.1857 17.8624C24.4242 16.0739 26.2802 13.8535 27.6434 11.3332V11.3332C29.0065 8.81303 30.8625 6.59264 33.101 4.8041L40.3409 -0.980561" stroke="#FFAD33"/>
<path d="M-12.7479 45.7738V45.7738C-9.19794 42.9374 -4.42817 42.1518 -0.156074 43.6998L0.168918 43.8176C4.6429 45.4388 9.63807 44.6161 13.3558 41.6456L46.8835 14.8571" stroke="#FFAD33"/>
<path d="M2.25511 12.1025L2.61566 11.8144C5.97683 9.12886 7.8389 4.9889 7.61817 0.692281V0.692281C7.39745 -3.60434 9.25952 -7.7443 12.6207 -10.4299L17.8985 -14.6468" stroke="#FFAD33"/>
<path d="M8.13982 29.0849L9.98409 27.6113C12.4876 25.611 15.5613 24.4568 18.7626 24.3147V24.3147C21.964 24.1727 25.0377 23.0185 27.5412 21.0182L45.4417 6.71569" stroke="#FFAD33"/>
</g>
</g>
<path d="M11.0771 15.2166V18.6357C11.0771 19.8877 11.0771 19.8877 12.2604 20.6857L15.5144 22.5638C16.0028 22.8459 16.8008 22.8459 17.2893 22.5638L20.5432 20.6857C21.7265 19.8877 21.7265 19.8877 21.7265 18.6357V15.2166C21.7265 13.9645 21.7265 13.9645 20.5432 13.1665L17.2893 11.2884C16.8008 11.0064 16.0028 11.0064 15.5144 11.2884L12.2604 13.1665C11.0771 13.9645 11.0771 13.9645 11.0771 15.2166Z" fill="url(#paint0_linear_401_3932)"/>
<path d="M10.8398 15.3466V18.66C10.8398 19.8733 10.8398 19.8733 11.9865 20.6466L15.1398 22.4666C15.6132 22.74 16.3865 22.74 16.8598 22.4666L20.0132 20.6466C21.1598 19.8733 21.1598 19.8733 21.1598 18.66V15.3466C21.1598 14.1333 21.1598 14.1333 20.0132 13.36L16.8598 11.54C16.3865 11.2666 15.6132 11.2666 15.1398 11.54L11.9865 13.36C10.8398 14.1333 10.8398 14.1333 10.8398 15.3466Z" stroke="#FF9900" stroke-linecap="round" stroke-linejoin="round"/>
<path d="M19.6663 13.0866V11.3333C19.6663 9.99992 18.9997 9.33325 17.6663 9.33325H14.333C12.9997 9.33325 12.333 9.99992 12.333 11.3333V13.0399" stroke="#FF9900" stroke-linecap="round" stroke-linejoin="round"/>
<path d="M16.4202 15.3266L16.8002 15.92C16.8602 16.0133 16.9935 16.1066 17.0935 16.1333L17.7735 16.3066C18.1935 16.4133 18.3068 16.7733 18.0335 17.1066L17.5868 17.6466C17.5202 17.7333 17.4668 17.8866 17.4735 17.9933L17.5135 18.6933C17.5402 19.1266 17.2335 19.3466 16.8335 19.1866L16.1802 18.9266C16.0802 18.8866 15.9135 18.8866 15.8135 18.9266L15.1602 19.1866C14.7602 19.3466 14.4535 19.12 14.4802 18.6933L14.5202 17.9933C14.5268 17.8866 14.4735 17.7266 14.4068 17.6466L13.9602 17.1066C13.6868 16.7733 13.8002 16.4133 14.2202 16.3066L14.9002 16.1333C15.0068 16.1066 15.1402 16.0066 15.1935 15.92L15.5735 15.3266C15.8135 14.9666 16.1868 14.9666 16.4202 15.3266Z" fill="white" stroke="#FF9900" stroke-linecap="round" stroke-linejoin="round"/>
<defs>
<linearGradient id="paint0_linear_401_3932" x1="16.4018" y1="11.0769" x2="16.4018" y2="22.7754" gradientUnits="userSpaceOnUse">
<stop stop-color="#FF9900" stop-opacity="0.35"/>
<stop offset="1" stop-color="#FF9900" stop-opacity="0"/>
</linearGradient>
</defs>
</svg>
