<svg width="66" height="56" viewBox="0 0 66 56" fill="none" xmlns="http://www.w3.org/2000/svg">
<path d="M30.4144 38.0856C30.4654 35.1112 30.4938 32.1367 30.507 29.1604C30.5108 28.1557 30.0665 27.3007 29.5447 26.5178C28.6126 25.1181 27.3969 24.1675 25.7539 23.9745C25.5894 23.9546 25.4835 23.749 25.2945 23.8013C25.251 23.9023 25.1753 23.8861 25.0997 23.8608C19.1158 23.7869 13.1337 23.7183 7.1498 23.6317C5.64862 23.6101 4.276 23.9907 3.10379 25.0297C1.95238 26.0488 1.23015 27.3566 1.13183 28.9746C0.831217 33.9603 0.914407 38.9551 0.842562 43.9462C0.800967 46.8612 2.45907 49.2909 5.14192 50.0377C5.51816 50.1423 5.87928 50.2181 6.26308 50.2217C11.5172 50.2848 16.7714 50.3714 22.0274 50.3948C22.7837 50.3984 23.3433 50.6257 23.8632 51.1687C25.2113 52.5756 26.5763 53.9628 27.9395 55.3553C28.2533 55.6764 28.5766 55.956 29.0644 55.9379C29.8264 55.9109 30.3179 55.303 30.2045 54.4768C30.1913 54.3794 30.2045 54.2784 30.2045 54.1774C30.2612 50.016 30.3217 45.8528 30.369 41.6915" fill="url(#paint0_linear_3165_4031)"/>
<path d="M12.0883 37.3801C12.0826 38.1053 11.4965 38.6933 10.7875 38.6771C9.90837 38.6554 9.53024 38.0475 9.46217 37.3711C9.40545 36.8155 10.1201 36.0579 10.4245 36.0615C11.5381 36.076 12.0959 36.5143 12.0864 37.3819L12.0883 37.3801Z" fill="white"/>
<path d="M16.9906 37.3801C16.985 38.1053 16.3989 38.6933 15.6899 38.6771C14.8107 38.6554 14.4326 38.0475 14.3645 37.3711C14.3078 36.8155 15.0225 36.0579 15.3269 36.0615C16.4405 36.076 16.9982 36.5143 16.9887 37.3819L16.9906 37.3801Z" fill="white"/>
<path d="M21.8891 37.3801C21.8834 38.1053 21.2973 38.6933 20.5883 38.6771C19.7092 38.6554 19.331 38.0475 19.263 37.3711C19.2062 36.8155 19.9209 36.0579 20.2253 36.0615C21.3389 36.076 21.8966 36.5143 21.8872 37.3819L21.8891 37.3801Z" fill="white"/>
<mask id="path-5-outside-1_3165_4031" maskUnits="userSpaceOnUse" x="24.6484" y="-0.31543" width="41" height="40" fill="black">
<rect fill="white" x="24.6484" y="-0.31543" width="41" height="40"/>
<path d="M28.6877 17.9582C28.6744 14.9729 28.6896 11.9876 28.7217 9.00409C28.733 7.99577 29.2511 7.14437 29.8523 6.36512C30.93 4.97258 32.3253 4.0328 34.1914 3.86144C34.3786 3.8434 34.5015 3.63957 34.7151 3.69368C34.7643 3.7965 34.8474 3.78027 34.9344 3.75501C41.72 3.75501 48.5056 3.76223 55.293 3.7496C56.9965 3.74599 58.5469 4.14644 59.8609 5.20347C61.1503 6.24066 61.95 7.56105 62.0351 9.18628C62.2998 14.1918 62.1278 19.2028 62.1315 24.212C62.1334 27.1378 60.2144 29.5531 57.161 30.2692C56.7337 30.3702 56.3234 30.4406 55.8867 30.4406C49.9273 30.4388 43.968 30.4586 38.0086 30.4171C37.1503 30.4117 36.5131 30.6318 35.9138 31.1711C34.3634 32.5672 32.7923 33.9399 31.2268 35.3199C30.8657 35.6391 30.4951 35.9151 29.9412 35.8899C29.079 35.852 28.5289 35.2369 28.6707 34.4089C28.6877 34.3115 28.6744 34.2087 28.6744 34.1095C28.6744 29.9337 28.6707 22.134 28.682 17.9582"/>
</mask>
<path d="M28.6877 17.9582C28.6744 14.9729 28.6896 11.9876 28.7217 9.00409C28.733 7.99577 29.2511 7.14437 29.8523 6.36512C30.93 4.97258 32.3253 4.0328 34.1914 3.86144C34.3786 3.8434 34.5015 3.63957 34.7151 3.69368C34.7643 3.7965 34.8474 3.78027 34.9344 3.75501C41.72 3.75501 48.5056 3.76223 55.293 3.7496C56.9965 3.74599 58.5469 4.14644 59.8609 5.20347C61.1503 6.24066 61.95 7.56105 62.0351 9.18628C62.2998 14.1918 62.1278 19.2028 62.1315 24.212C62.1334 27.1378 60.2144 29.5531 57.161 30.2692C56.7337 30.3702 56.3234 30.4406 55.8867 30.4406C49.9273 30.4388 43.968 30.4586 38.0086 30.4171C37.1503 30.4117 36.5131 30.6318 35.9138 31.1711C34.3634 32.5672 32.7923 33.9399 31.2268 35.3199C30.8657 35.6391 30.4951 35.9151 29.9412 35.8899C29.079 35.852 28.5289 35.2369 28.6707 34.4089C28.6877 34.3115 28.6744 34.2087 28.6744 34.1095C28.6744 29.9337 28.6707 22.134 28.682 17.9582" fill="url(#paint1_linear_3165_4031)"/>
<path d="M28.7217 9.00409L25.3182 8.9658L25.3182 8.96743L28.7217 9.00409ZM29.8523 6.36512L27.1605 4.28198L27.1575 4.28592L29.8523 6.36512ZM34.1914 3.86144L34.5026 7.25087L34.5103 7.25017L34.5179 7.24943L34.1914 3.86144ZM34.7151 3.69368L37.7859 2.22554L37.0976 0.785974L35.5508 0.394187L34.7151 3.69368ZM34.9344 3.75501V0.35132H34.4503L33.9853 0.486328L34.9344 3.75501ZM55.293 3.7496L55.2994 7.15329L55.3002 7.15328L55.293 3.7496ZM59.8609 5.20347L57.7274 7.85556L57.7275 7.85563L59.8609 5.20347ZM62.0351 9.18628L58.6361 9.36422L58.6362 9.36601L62.0351 9.18628ZM62.1315 24.212L65.5352 24.2098L65.5352 24.2094L62.1315 24.212ZM57.161 30.2692L56.3838 26.9554L56.3779 26.9568L57.161 30.2692ZM55.8867 30.4406L55.8857 33.8442H55.8867V30.4406ZM38.0086 30.4171L38.0323 27.0135L38.0301 27.0135L38.0086 30.4171ZM35.9138 31.1711L33.637 28.641L33.6361 28.6418L35.9138 31.1711ZM31.2268 35.3199L28.9761 32.7665L28.9723 32.7699L31.2268 35.3199ZM29.9412 35.8899L30.0962 32.4897L30.0906 32.4894L29.9412 35.8899ZM28.6707 34.4089L25.3177 33.8232L25.3158 33.8344L28.6707 34.4089ZM32.0913 17.9431C32.0782 14.9791 32.0932 12.0116 32.1252 9.04076L25.3182 8.96743C25.2859 11.9636 25.2707 14.9667 25.284 17.9733L32.0913 17.9431ZM32.1252 9.04238C32.1242 9.12988 32.0981 9.14831 32.1434 9.05241C32.1988 8.9352 32.3118 8.74937 32.5471 8.44432L27.1575 4.28592C26.4671 5.18068 25.3427 6.78873 25.3182 8.9658L32.1252 9.04238ZM32.5441 8.44826C33.1669 7.64347 33.76 7.31906 34.5026 7.25087L33.8801 0.472006C30.8906 0.746538 28.6931 2.3017 27.1605 4.28198L32.5441 8.44826ZM34.5179 7.24943C35.1439 7.18911 35.6122 6.98162 35.8567 6.85815C35.9782 6.79675 36.0746 6.74012 36.1143 6.71662C36.1255 6.71003 36.1353 6.70419 36.1418 6.70034C36.1509 6.69489 36.1506 6.69506 36.1551 6.6924C36.1607 6.68903 36.1526 6.69393 36.1392 6.70161C36.1143 6.71594 36.036 6.76044 35.9265 6.81081C35.8139 6.86256 35.6489 6.92969 35.4407 6.98481C35.2284 7.04105 34.9786 7.0828 34.6994 7.08777C34.4186 7.09276 34.1425 7.05983 33.8794 6.99318L35.5508 0.394187C34.8819 0.224761 34.2442 0.259656 33.6982 0.404243C33.2129 0.532734 32.8605 0.734411 32.7474 0.799395C32.7078 0.822168 32.6157 0.876976 32.6517 0.855704C32.6535 0.854607 32.668 0.846041 32.6893 0.834101C32.7111 0.821919 32.7448 0.80347 32.7876 0.781862C32.9497 0.699993 33.3325 0.524748 33.8649 0.473441L34.5179 7.24943ZM31.6443 5.16183C32.097 6.10856 33.0221 6.94706 34.3087 7.13887C34.7999 7.21209 35.2023 7.16587 35.43 7.12791C35.6564 7.09018 35.8354 7.03768 35.8835 7.0237L33.9853 0.486328C33.99 0.484972 34.126 0.443972 34.3107 0.413173C34.4969 0.382144 34.859 0.338292 35.3124 0.405882C35.8042 0.479187 36.3522 0.67693 36.852 1.06694C37.3351 1.44395 37.6219 1.88257 37.7859 2.22554L31.6443 5.16183ZM34.9344 7.1587C41.7152 7.1587 48.5077 7.16592 55.2994 7.15329L55.2867 0.345915C48.5034 0.358533 41.7248 0.35132 34.9344 0.35132V7.1587ZM55.3002 7.15328C56.4468 7.15086 57.1727 7.4093 57.7274 7.85556L61.9943 2.55138C59.921 0.883577 57.5463 0.341129 55.2858 0.345916L55.3002 7.15328ZM57.7275 7.85563C58.4167 8.40998 58.6111 8.88796 58.6361 9.36422L65.4342 9.00834C65.2889 6.23413 63.8839 4.07134 61.9942 2.55131L57.7275 7.85563ZM58.6362 9.36601C58.8947 14.2553 58.724 19.0443 58.7279 24.2146L65.5352 24.2094C65.5316 19.3613 65.7049 14.1284 65.4341 9.00654L58.6362 9.36601ZM58.7279 24.2142C58.7287 25.4851 57.9707 26.5833 56.3838 26.9554L57.9382 33.583C62.4581 32.5229 65.5382 28.7905 65.5352 24.2098L58.7279 24.2142ZM56.3779 26.9568C56.0764 27.0281 55.9527 27.0369 55.8867 27.0369V33.8442C56.6942 33.8442 57.391 33.7123 57.9441 33.5816L56.3779 26.9568ZM55.8877 27.0369C49.9119 27.0351 43.9766 27.0549 38.0323 27.0135L37.9849 33.8207C43.9594 33.8623 49.9428 33.8424 55.8857 33.8442L55.8877 27.0369ZM38.0301 27.0135C36.4272 27.0034 34.9398 27.4686 33.637 28.641L38.1906 33.7012C38.2022 33.6907 38.1887 33.7044 38.1506 33.7278C38.1108 33.7521 38.0612 33.7765 38.0071 33.7958C37.8927 33.8366 37.8568 33.8199 37.9872 33.8207L38.0301 27.0135ZM33.6361 28.6418C32.1036 30.0219 30.5566 31.3734 28.9761 32.7665L33.4775 37.8732C35.028 36.5065 36.6233 35.1126 38.1915 33.7004L33.6361 28.6418ZM28.9723 32.7699C28.8307 32.8951 28.9133 32.8024 29.108 32.7029C29.2219 32.6447 29.3742 32.5826 29.5593 32.5399C29.7463 32.4967 29.9292 32.4821 30.0962 32.4897L29.7862 39.29C31.7653 39.3802 33.0245 38.2737 33.4813 37.8698L28.9723 32.7699ZM30.0906 32.4894C30.4339 32.5045 31.0175 32.6592 31.4991 33.2136C32.0055 33.7966 32.1095 34.493 32.0255 34.9835L25.3158 33.8344C25.09 35.1528 25.3982 36.5707 26.3598 37.6778C27.2965 38.7561 28.5863 39.2373 29.7918 39.2903L30.0906 32.4894ZM32.0236 34.9947C32.0896 34.6168 32.0846 34.3047 32.0817 34.1799C32.0808 34.1443 32.0798 34.1137 32.079 34.0933C32.0786 34.0831 32.0782 34.0736 32.078 34.0672C32.0777 34.0597 32.0775 34.0561 32.0774 34.0524C32.0767 34.0344 32.0781 34.0645 32.0781 34.1095H25.2707C25.2707 34.2041 25.2739 34.2842 25.2751 34.3165C25.2755 34.3254 25.2758 34.3343 25.276 34.3394C25.2763 34.3455 25.2764 34.3486 25.2765 34.351C25.2767 34.3558 25.2764 34.3503 25.2762 34.3399C25.2757 34.3207 25.2746 34.2602 25.2784 34.1776C25.2823 34.0935 25.2919 33.971 25.3177 33.8232L32.0236 34.9947ZM32.0781 34.1095C32.0781 29.9289 32.0744 22.1371 32.0857 17.9674L25.2783 17.949C25.267 22.1309 25.2707 29.9385 25.2707 34.1095H32.0781Z" fill="#E2FBED" mask="url(#path-5-outside-1_3165_4031)"/>
<path d="M49.3591 14.2947C49.4858 15.6674 48.5971 16.5134 47.6443 17.3251C47.3455 17.5794 47.0071 17.7923 46.7216 18.0574C46.5552 18.2126 46.4437 18.4074 46.3964 18.6599C46.2905 19.2353 45.7177 19.7314 45.1807 19.7981C44.744 19.854 44.0407 19.4915 43.861 18.9972C43.6172 18.3298 43.7627 17.675 44.1579 17.0671C44.5474 16.4665 45.0673 15.9885 45.6534 15.5754C45.9086 15.395 46.145 15.1966 46.3643 14.9819C46.6573 14.6933 46.8199 14.3668 46.6649 13.9502C46.4834 13.4631 46.1223 13.1944 45.5948 13.1619C44.6098 13.0988 44.1844 13.4685 44.0898 14.4354C44.0274 15.0559 43.3071 15.6962 42.6926 15.6728C42.0252 15.6493 41.4618 15.0324 41.441 14.3344C41.3767 12.1878 43.3165 10.3642 45.6761 10.5536C47.58 10.7069 48.8486 11.7188 49.3496 13.6002C49.4082 13.8203 49.3572 14.0674 49.3572 14.2965L49.3591 14.2947Z" fill="white"/>
<path d="M46.4125 22.2258C46.4068 22.951 45.8207 23.539 45.1117 23.5228C44.2326 23.5011 43.8545 22.8932 43.7864 22.2168C43.7297 21.6612 44.4443 20.9036 44.7487 20.9072C45.8623 20.9217 46.4201 21.36 46.4106 22.2276L46.4125 22.2258Z" fill="white"/>
<defs>
<linearGradient id="paint0_linear_3165_4031" x1="15.6744" y1="23.6309" x2="15.6744" y2="55.9388" gradientUnits="userSpaceOnUse">
<stop stop-color="#06CE63"/>
<stop offset="1" stop-color="#02863F"/>
</linearGradient>
<linearGradient id="paint1_linear_3165_4031" x1="32.8613" y1="0.871013" x2="56.664" y2="33.3044" gradientUnits="userSpaceOnUse">
<stop stop-color="#00DB66"/>
<stop offset="1" stop-color="#018F44"/>
</linearGradient>
</defs>
</svg>
