<svg xmlns="http://www.w3.org/2000/svg" xmlns:xlink="http://www.w3.org/1999/xlink" width="45" zoomAndPan="magnify" viewBox="0 0 33.75 33.749999" height="45" preserveAspectRatio="xMidYMid meet" version="1.0"><defs><clipPath id="cf5a5ac78c"><path d="M 24 7.601562 L 31.976562 7.601562 L 31.976562 11 L 24 11 Z M 24 7.601562 " clip-rule="nonzero"/></clipPath><clipPath id="1e7cde3e0f"><path d="M 16 15 L 31.976562 15 L 31.976562 19 L 16 19 Z M 16 15 " clip-rule="nonzero"/></clipPath><clipPath id="5b6929407b"><path d="M 1.457031 7.601562 L 31.976562 7.601562 L 31.976562 26 L 1.457031 26 Z M 1.457031 7.601562 " clip-rule="nonzero"/></clipPath></defs><g clip-path="url(#cf5a5ac78c)"><path fill="#ff4d00" d="M 27.082031 7.609375 L 24.023438 10.667969 L 32.046875 10.667969 L 32.046875 7.609375 Z M 27.082031 7.609375 " fill-opacity="1" fill-rule="nonzero"/></g><g clip-path="url(#1e7cde3e0f)"><path fill="#ff4d00" d="M 16.414062 18.28125 L 32.046875 18.28125 L 32.046875 15.210938 L 19.476562 15.210938 Z M 16.414062 18.28125 " fill-opacity="1" fill-rule="nonzero"/></g><g clip-path="url(#5b6929407b)"><path fill="#ff4d00" d="M 24.050781 7.609375 L 5.140625 7.609375 L 5.140625 10.667969 L 16.664062 10.667969 L 1.453125 25.882812 L 32.046875 25.882812 L 32.046875 22.832031 L 8.835938 22.832031 Z M 24.050781 7.609375 " fill-opacity="1" fill-rule="nonzero"/></g></svg>